<?xml version="1.0" encoding="UTF-8"?>
<svg id="_图层_1" data-name="图层_1" xmlns="http://www.w3.org/2000/svg" version="1.1" viewBox="0 0 256 256">
  <!-- Generator: Adobe Illustrator 29.8.2, SVG Export Plug-In . SVG Version: 2.1.1 Build 3)  -->
  <defs>
    <style>
      .st0 {
        fill: #358283;
      }

      .st1 {
        fill: #2c8181;
      }

      .st2 {
        fill: #43aa68;
      }

      .st3 {
        fill: #023c3b;
      }

      .st4 {
        fill: #b1afb0;
      }

      .st5 {
        fill: #30a561;
      }

      .st6 {
        fill: #50ad73;
      }

      .st7 {
        fill: #5aaf75;
      }

      .st8 {
        fill: #4fac6e;
      }

      .st9 {
        fill: #4bac72;
      }

      .st10 {
        fill: #10716e;
      }

      .st11 {
        fill: #d32f2f;
      }

      .st12 {
        fill: #61b383;
      }

      .st13 {
        fill: #116c69;
      }

      .st14 {
        fill: #498b75;
      }

      .st15 {
        fill: #025c5a;
      }

      .st16 {
        fill: #004a47;
      }

      .st17 {
        fill: #257270;
      }

      .st18 {
        fill: #03504c;
      }

      .st19 {
        fill: #5ab17b;
      }

      .st20 {
        fill: #206f6d;
      }

      .st21 {
        fill: #196f5f;
      }

      .st22 {
        fill: #4da673;
      }

      .st23 {
        fill: #17827e;
      }

      .st24 {
        fill: #0b514d;
      }

      .st25 {
        fill: #3aa762;
      }

      .st26 {
        fill: #18998f;
      }

      .st27 {
        fill: #106d69;
      }

      .st28 {
        fill: #309690;
      }
    </style>
  </defs>
  <path class="st11" d="M0,0"/>
  <g>
    <g>
      <path class="st10" d="M109.05,170.88c-1.68.68-3.37,1.33-5.03,2.05-4.24,1.84-8.52,3.59-12.7,5.57-2.66,1.26-5.23,2.67-7.73,4.22-.19.11-.35.27-.58.31-.3-.21-.22-.51-.22-.8.08-3.06,1.21-5.78,2.85-8.3,1.28-1.98,2.68-3.87,4.63-5.53-1.67.37-3.14.77-4.6,1.19-.23.07-.45.2-.71.08-.18-.44.24-.47.45-.58,2.49-1.23,4.85-2.67,7.21-4.13,3.88-2.4,7.67-4.93,11.18-7.86,2.4-2,4.51-4.29,6.38-6.79,3.15-4.2,6.45-8.28,9.28-12.71,3.32-5.18,6.7-10.33,10.03-15.5,2.08-3.24,4.37-6.33,6.92-9.23,1.48-1.68,2.97-3.34,4.6-4.85,2.5-2.31,5.02-4.61,7.8-6.58.58-.27,1.16-.06,1.73,0,2.2.25,4.22,1.08,6.21,1.98,2.64,1.19,4.98,2.84,7.17,4.7.43.37.79.8,1.13,1.25.27.71.77,1.3,1.06,2,.15.38.52.57,1.01.58,2.66.06,5.3-.28,7.96-.37,1.78-.05,3.54-.34,5.33-.34.97,0,1.95-.02,2.92-.05.86-.03,1.72-.22,2.6-.3.44-.04.89-.05,1.3,0,1.73.18,3.39-.44,5.11-.36.3.01.81-.17.78.36-.03.5-.59.48-.88.38-.64-.21-1.11.06-1.66.28-.78.31-1.57.7-2.46.57-.12-.02-.25-.04-.36.01-1.18.54-2.47.76-3.72.92-1.25.16-2.43.77-3.73.6-.42.45-1.05.4-1.56.64-.32.16-.69.19-.91.02-.63-.49-1.28-.08-1.51.24-.42.58-1,.54-1.5.65-2.31.49-4.54,1.22-6.81,1.84-1.35.37-2.52,1.1-3.76,1.7-.24.12-.33.36-.56.46v.02c-.66.23-1.26.59-1.88.89-.05.03-.11.06-.17.09-.11.06-.22.12-.32.19-.05.04-.1.07-.16.1-.11.07-.22.14-.32.22-3.21,2.13-5.75,4.94-8.03,8-1.71,2.3-3.35,4.65-4.74,7.17-1.09,1.97-2.08,4-3.29,5.91-1.56,2.47-3.34,4.77-5.2,7.02-1.91,2.29-4.26,4.03-6.75,5.61-3.24,1.99-6.62,3.73-10.04,5.39-1.83.89-3.69,1.73-5.63,2.33-1.45.45-2.59,1.23-3.56,2.35-1.78,1.7-3.3,3.58-4.23,5.88-.07.18-.15.36-.31.49Z"/>
      <path class="st3" d="M38.96,225.82c.5-1.72,1.19-3.37,1.86-5.02,2.01-4.96,4.48-9.69,7.14-14.32,2.27-3.95,4.5-7.92,6.75-11.88,1.19-2.09,2.55-4.07,3.83-6.1,2.2-3.48,4.34-6.99,6.58-10.45,2.34-3.62,4.76-7.19,7.15-10.79,2.43-3.66,4.63-7.44,6.56-11.38,1.14-2.34,1.98-4.78,2.45-7.36.46-2.57.74-5.14.68-7.74-.02-.98-.08-1.96-.23-2.93-.05-.31-.04-.63-.06-.95.51-1.22,1.25-2.31,1.85-3.49.12-.24.27-.47.56-.54.07,0,.13.04.18.1.07.12.12.25.17.39.03.07.04.13.06.2.03.18.13.34.21.51.75,2.24,1.09,4.57,1.3,6.91.52,5.6-.69,10.95-2.4,16.22-.32.98-.62,1.96-1.01,2.91-.96,2.69-1.88,5.4-2.91,8.06-.28.73-.6,1.44-.9,2.16-.06.12-.13.24-.19.36-.03.06-.06.12-.09.17-.08.14-.15.29-.22.43-.03.06-.06.12-.1.18-.05.09-.11.18-.15.28-.15.35-.45.5-.78.62-2.6.98-5.1,2.17-7.57,3.42-.46.23-.82.51-.98,1.03-1.79,5.63-3.73,11.22-5,17-.29,1.34-.15,2.63.02,3.94.04.34.16.67.04,1.02-.89.98-1.9,1.84-2.86,2.74-3.58,3.39-7.08,6.86-10.47,10.44-2.59,2.75-4.98,5.68-7.28,8.67-1.36,1.76-2.67,3.57-4,5.35-.15.03-.22,0-.17-.17Z"/>
      <path class="st19" d="M45.64,49.24c-1.75-2.84-3.25-5.81-4.86-8.73-.79-1.44-1.38-2.97-2.2-4.4-.48-.85-.95-1.71-1.42-2.57-.11-.19-.26-.36-.28-.59.39-.1.52.2.66.45.95,1.69,1.9,3.37,2.71,5.13.62,1.36,1.32,2.67,2.09,3.95.13.21.28.41.36.64.49,1.38,1.48,2.3,2.66,3.12,3.29,2.26,6.5,4.65,9.73,6.99,2.25,1.62,4.42,3.34,6.62,5.01,1.1.83,2.12,1.75,3.22,2.56,3.73,3.03,7.46,6.06,11.04,9.26.46.41.97.75,1.32,1.27.2.26.35.52.3.87-.52,3.62-1.03,7.23-2.49,10.63-1.16,2.72-2.6,5.27-4.37,7.64-.34.46-.68.9-.44,1.53.08.21.07.5-.25.6-.22-.07-.29-.25-.35-.44-1.1-3.68-2.42-7.28-4.02-10.77-.15-.32-.28-.66-.55-.92-.76-1.62-1.53-3.23-2.38-4.8-1.26-2.33-2.56-4.63-4.05-6.82-.92-1.36-11.89-17.7-13.08-19.64Z"/>
      <path class="st15" d="M63.73,198.79c-.26-.39-.21-.85-.28-1.28-.26-1.46-.19-2.9.16-4.35.75-3.14,1.62-6.24,2.62-9.31.58-1.79,1.13-3.59,1.66-5.39.2-.68.47-1.34.71-2.01.09-.26.26-.45.52-.59,2.6-1.32,5.22-2.61,7.95-3.62.41-.15,3.72-1.52,3.83-1.57.06-.03,1.02-.34,1.43-.5.62-.21,1.24-.42,1.88-.58.23-.06.46-.19.69-.01.68-.18,1.36-.38,2.04-.55,1.16-.3,2.32-.6,3.47-.89.04,0,.08.03.17.07-.17.21-.31.46-.51.62-1.12.9-2.01,2.01-2.86,3.14-.98,1.31-1.91,2.66-2.63,4.15-.99,2.05-1.59,4.2-1.66,6.48,0,.14.05.29.08.43-1.45,1-2.9,1.99-4.34,3-2.66,1.85-5.18,3.86-7.51,6.11-1.02.99-2.16,1.84-3.21,2.79-1.27,1.15-2.5,2.34-3.75,3.51-.14.13-.26.29-.46.36Z"/>
      <path class="st9" d="M64.88,60.92c-.77-.39-1.38-1-2.03-1.55-.75-.63-1.55-1.18-2.31-1.79-1.26-1-2.52-2-3.81-2.96-.8-.6-1.63-1.16-2.42-1.77-1.16-.89-2.39-1.69-3.58-2.54-2.32-1.67-4.63-3.34-6.94-5.01-.21-.15-.35-.33-.47-.55-.67-1.27-1.3-2.56-2.02-3.8-.68-1.16-1.2-2.38-1.77-3.58-.44-.92-.97-1.8-1.46-2.7-.22-.4-.46-.8-.68-1.21-.12-.22-.25-.42-.5-.51-.29-.36-1.07-1.89-1.01-1.94s.76.34.89.46c2.14,1.64,4.16,3.42,6.16,5.22,2.1,1.88,18.82,15.72,20.38,17.02.79.65,1.63,1.26,2.34,2.01.04.07.03.14-.03.2-.68.09-.9-.6-1.43-.86-.12.26,0,.48.06.7.34,1.35.57,2.73.79,4.11.06.35.14.73-.14,1.05Z"/>
      <path class="st6" d="M49.89,106.7c.94.41,1.86.87,2.75,1.38,1.61.94,3.24,1.82,4.97,2.53,1.28.52,2.58.92,3.97.99.61.03,1.22-.04,1.82-.14.37.17.34.51.33.82-.09,3.85-.87,7.51-2.9,10.83-.15.25-.29.52-.62.57-.32-.32-.04-.6.1-.85.7-1.24,1.34-2.51,1.78-3.87.56-1.76.93-3.56.97-5.41,0-.35.09-.68.12-1.02.03-.36-.11-.54-.51-.52-2.89.16-5.4-.99-7.89-2.26-.15-.08-.3-.16-.45-.26-.43-.28-.7-.2-.87.31-.89,2.71-2.41,4.97-4.72,6.67-.07.02-.14.03-.22.01-.4-.23-.77-.53-1.1-.85-1.4-1.41-2.88-2.73-4.3-4.11-3.7-3.62-7.76-6.75-12.49-8.93-1.11-.51-6.68-2.49-7.26-2.8.54-.17,1.62-.27,2.15-.22,2.46.26,4.88.72,7.29,1.25,1.85.41,3.73.74,5.54,1.35,3.5,1.17,7.04,2.22,10.31,3.97.38.21.81.35,1.2.53Z"/>
      <path class="st26" d="M113.47,164.42c.54-.67,1.18-1.24,1.86-1.76.2-.15.45-.19.68-.27,1.07-.41,2.16-.78,3.23-1.21,2.16-.87,4.25-1.88,6.33-2.93,2.33-1.19,4.64-2.42,6.87-3.8.1-.06.22-.11.33-.16.61.96,1.19,1.93,2.23,2.55.53.31,1.15.18,1.63.55-.02.08-.08.12-.15.14-.81.33-1.4.99-2.14,1.42-2.09,1.21-4.06,2.63-6.22,3.7-1.48.73-2.99,1.42-4.5,2.11-1.77.82-3.6,1.5-5.36,2.35-1.36.66-2.79,1.16-4.16,1.78-1.02.46-2.1.77-3.13,1.23-.16.07-.33.1-.5.13-.33.07-.69-.01-.89-.22-.22-.23.1-.48.21-.7.87-1.66,2.01-3.12,3.33-4.45.14-.14.27-.28.37-.46Z"/>
      <path class="st15" d="M100.05,95.23c.12-.33.2-.66.17-1.01-.06-.59.14-1.16.14-1.75,0-1.27-.09-2.54-.27-3.8-.03-.23-.11-.49.13-.68,3.13,3.41,6.38,6.71,9.39,10.23,1.42,1.66,2.89,3.27,4.33,4.91.64.74,1.26,1.5,1.88,2.25.19,2.27.03,4.48-1.01,6.56-.4.28-.57-.07-.76-.29-.84-1.01-1.63-2.06-2.44-3.09-1.42-1.91-3.09-3.6-4.73-5.3-2.04-2.11-3.94-4.35-5.84-6.58-.38-.44-1.03-.73-.99-1.46Z"/>
      <path class="st26" d="M60.17,123.65c.65-.56.91-1.37,1.29-2.1.73-1.41,1.26-2.9,1.55-4.47.18-.95.34-1.91.41-2.88.04-.68.18-1.35.14-2.04-.01-.25,0-.49-.14-.71,1.27-.43,1.96-1.38,2.32-2.74.25.4.23.76.29,1.09.22,1.83.47,3.65.78,5.47.09.5.16,1.01.27,1.51.89,3.14,1.79,6.28,3.26,9.21.1.19.2.39.29.59.42.89.24,1.16-.75,1.07-3.49-.31-6.84-1.11-9.94-2.81-.16-.1-.33-.2-.4-.39.08-.37.35-.59.63-.81Z"/>
      <path class="st3" d="M114.63,112.04c.77-1.79,1.12-3.66,1.06-5.6,0-.35-.14-.73.14-1.05,1.1,1.31,2.2,2.62,3.29,3.94,1.06,1.29,1.98,2.67,2.79,4.11.26-.02.27-.24.36-.37,1.24-1.85,2.54-3.66,4.03-5.32.32.02.33.29.32.48-.09,2,.28,3.93.87,5.82.01.04,0,.1,0,.15-.03.28-.17.51-.32.73-.25.31-.51.62-.71.98-.03.06-.07.11-.11.16-.08.1-.15.21-.22.32-.03.06-.07.11-.11.16-.06.08-.13.16-.2.24-1.04,1.16-2.25,1.96-3.89,1.89-1.81-.07-3.17-.97-4.23-2.34-.93-1.2-1.87-2.4-2.8-3.6-.16-.2-.41-.38-.26-.7Z"/>
      <path class="st15" d="M127.31,114.36c.01-.25-.03-.48-.12-.71-.6-1.61-.84-3.28-.78-4.99.01-.3.12-.63-.12-.91,2.61-3.1,5.61-5.72,9.37-7.37,1.94-.85,7.26-1.78,7.4-1.75.07.16-.02.27-.12.37-1.59,1.07-2.68,2.54-3.48,4.25-.04.05-.09.09-.15.13-.08.05-.16.09-.25.14-.05.03-.11.06-.16.09-.11.06-.21.14-.32.21-2.66,1.4-5.03,3.19-7.1,5.38-1.36,1.45-2.49,3.07-3.64,4.68-.14.19-.17.54-.54.49Z"/>
      <path class="st3" d="M59.91,124.65c.96.42,1.92.86,2.89,1.26,1.57.65,3.22,1.01,4.89,1.25.6.09,1.21.16,1.82.24.39.05.78.08,1.21.03-.01-.55-.47-.91-.55-1.41-.14-.41.17-.5.44-.58.34-.11.69-.16,1.05-.03h0c.05.04.09.08.11.14,1.11,1.64,2.3,3.22,3.58,4.73.26.31.59.58.91.88-4.31.88-12.37-.48-18.45-4.57-.11-.33.16-.48.33-.66.34-.37.7-.72,1.07-1.07.2-.19.4-.36.7-.22Z"/>
      <path class="st16" d="M84.16,132.92c-.28.14-.41.4-.54.66-.52,1.09-1.23,2.07-1.7,3.19-.04.1-.15.11-.25.12-.27-1.55-.74-3.04-1.17-4.55-.56-1.99-1.33-3.89-2.14-5.78-.97-2.25-1.94-4.49-2.74-6.81-.28-.81-.67-1.58-.9-2.41-.02-.07-.06-.17-.03-.21.49-.57.84-1.27,1.55-1.64.31.16.42.48.55.76,2.23,4.67,4.65,9.25,6.64,14.03.33.79.71,1.57.84,2.43,0,.08-.05.14-.11.19Z"/>
      <path class="st23" d="M87.47,75.18c1.05.84,1.97,1.82,2.92,2.76,1.62,1.59,3.25,3.18,4.84,4.8,1.69,1.72,3.39,3.44,4.99,5.25.36,2.17.45,4.35.19,6.54-.02.2-.06.38-.17.55-.39.41-.62.02-.81-.21-.39-.46-.81-.9-1.21-1.36-.88-1.08-1.82-2.11-2.75-3.15-2.64-2.93-5.32-5.82-8-8.71-1.11-1.2-2.32-2.32-3.52-3.44-1.95-1.82-3.79-3.76-5.69-5.65-.37-.37-.52-.82-.58-1.32-.04-.32-.06-.63-.16-.94-.18-1.39-.45-2.75-.67-4.13-.04-.25-.1-.48.1-.69.14.04.24.14.3.27.27.42.16,1.17.97,1.11.07,0,.13.02.2.05.23.42.56.72.99.94.17.09.47.14.29.46-.08.14,0,.18.11.19.76.05.97.67,1.21,1.22.13.29.32.46.59.48.5.04.75.4,1.05.71.87.88,1.71,1.8,2.8,2.43.19.11.39.27.45.47.1.34-.11.29-.31.18-.03-.03-.05-.07-.07-.11.01.04.03.08.07.11.8.12,1.19.9,1.89,1.17Z"/>
      <path class="st23" d="M139.24,103.33c.36-.58.58-1.23.97-1.8.72-1.06,1.56-1.99,2.7-2.62.89-.33,1.82-.28,2.74-.28,1.46.01,2.91.22,4.35.47.97.17,1.89.49,2.81.78,1.58.49,3.1,1.1,4.58,1.87.98.51,1.79,1.28,2.8,1.71.81.59,1.51,1.31,2.15,2.07.95,1.11,1.79,2.31,2.62,3.51.07.1.1.22.15.33-.03.07-.07.07-.11.01-.87-.85-1.8-1.64-2.76-2.4-.73-.57-1.49-1.1-2.27-1.6-2.12-1.37-4.42-2.38-6.81-3.19-1.28-.43-2.61-.56-3.93-.74-.13-.02-.28.07-.42.1-1.65.14-3.3.31-4.94.58-1.33.22-2.62.59-3.87,1.1-.24.1-.48.27-.76.08Z"/>
      <path class="st27" d="M76.2,115.54c-.45.53-.79,1.15-1.38,1.56-.07.05-.08.17-.11.26-.28-.44-.37-.95-.54-1.43-1.22-3.55-2.06-7.2-2.7-10.9-.58-3.35-1.16-6.71-1.83-10.05-.92-4.54-2.04-9.03-3.98-13.28-.04-.09-.05-.19-.07-.28-.05-.15,0-.2.15-.16,1.26,2.53,2.31,5.13,3.19,7.81.38,1.16.75,2.33,1.13,3.49.26.19.3.49.38.77,1.14,4.16,2.08,8.37,3.02,12.59.67,3.02,1.53,5.99,2.67,8.86.1.24.29.48.07.75Z"/>
      <path class="st18" d="M59.91,124.65c-.11.04-.26.05-.33.13-.6.6-1.26,1.15-1.77,1.83-1.46-.84-2.84-1.8-4.16-2.85-2.19-1.73-4.23-3.62-6.17-5.62-.2-.21-.38-.44-.57-.66-.07-.11-.1-.27.01-.33.52-.28.97-.73,1.62-.75.05,0,.1.01.15.02.88.34,1.39,1.13,2.11,1.68,2.65,2.01,5.17,4.18,8.11,5.77.25.14.54.25.69.52.1.08.21.17.31.25Z"/>
      <path class="st13" d="M48.54,116.41c-.48.27-.92.62-1.46.79-.14.04-.15.17-.18.29-.64-.67-1.29-1.33-1.92-2.01-1.36-1.45-2.67-2.94-4.08-4.34-1.91-1.9-3.9-3.72-6.15-5.23-.96-.64-1.89-1.31-2.87-1.92-2-1.25-3.13-2.11-6.21-3.29-.02-.04,1.05-.06,5.26,1.86,3.5,1.6,6.62,3.76,9.52,6.28,1.16,1.01,2.3,2.05,3.4,3.13,1.43,1.41,2.87,2.8,4.38,4.12.11.1.2.21.3.32Z"/>
      <path class="st17" d="M165.01,109.39l.1-.04c.47.61.82,1.29,1.17,1.96.21.4.47.55.93.52,2.39-.15,4.79-.27,7.19-.4,3.67-.21,7.34-.42,11.01-.63,3.45-.19,6.89-.49,10.34-.79.68-.06,3.98-.27,4.48-.3.04,0,.08.01.11.05h0c.07.08.03.19-.07.21-1.47.29-9.84,1.96-11.96,2.4-5.73,1.17-11.45,2.43-17.11,3.92-2.5.65-4.94,1.44-7.16,2.79-.1.06-.22.09-.34.13.12-.28.16-.63.6-.62.13,0,.2-.12.2-.26,0-.19.11-.25.28-.25.85.01,1.48-.47,2.11-.95.1-.07.23-.23.28-.21.57.28,1.03-.24,1.56-.21.1,0,.21.01.29-.03.57-.36,1.25-.39,1.86-.65.25-.11.52-.41.86-.13.05.04.18-.05.28-.06.49-.07.85-.4,1.26-.63.49.38.92-.12,1.39-.13.47,0,.93-.2,1.4-.3-.03-.18-.25-.19-.25-.43.39.04.77.02,1.05-.37.15-.21.6-.12.84.09.23.21.57.33.78.18.44-.3.9-.33,1.4-.32-.05-.23-.36-.08-.36-.37.33-.17.71-.08,1.05-.1.31-.01.61.15.86-.2.1-.15.32.03.48.05.3.04.65.16.71-.36.02-.17.2-.2.35-.12.51.26.99.15,1.53,0,.58-.16,1.16-.29,1.7-.57.13-.07.21,0,.32.06.31.14.66.08.83-.2.2-.32.44-.28.69-.2.37.12.71.12,1.07-.02.38-.15.73-.33,1.17-.37.33-.03.54-.42.92-.51.34-.07.62-.19.93.07.27.23.55.05.8-.09.05-.03.07-.13.07-.2,0-.08-.09-.12-.16-.1-.46.08-.93-.06-1.38,0-.34.05-.66.19-1,.02-.05-.03-.15,0-.21.02-.83.47-1.71.32-2.61.31-.55,0-1.13-.11-1.71.03-.53.12-1.16-.15-1.64.12-.65.36-1.27.24-1.91.15-.34-.05-.68-.11-1.01,0-.27.09-.53.06-.8.08-.88.05-1.75,0-2.63.09-1.05.11-2.1.27-3.16.33-.73.05-1.47.02-2.21.02-1.02,0-2.04.02-3.01.41-.1.04-.27.04-.36-.01-.64-.39-1.34-.28-2.01-.22-.57.05-.89-.34-1.33-.5-.02,0-.05-.03-.05-.05.1-.84-.74-1.32-.82-2.09Z"/>
      <path class="st24" d="M71.65,125.42c-.21.13-.46.12-.69.16-.31.05-.7.02-.79.46-.47-.8-.81-1.67-1.14-2.53-.84-2.16-1.53-4.38-2.08-6.63-.09-.49.1-.75.61-.75.38,1.06.74,2.12,1.13,3.17.75,2,1.69,3.9,2.79,5.73.07.12.12.26.18.4Z"/>
      <path class="st28" d="M113.47,164.42c0,.13-.03.24-.11.34-.47.53-.94,1.06-1.42,1.58-.46.48-.85,1-1.17,1.59-.37.68-.8,1.32-1.25,2.06.49-.11.86.37,1.28.05.42-.32,1.09-.13,1.37-.7.03-.07.1-.08.18-.08.94,0,1.71-.48,2.5-.89.5-.26,1.05-.38,1.57-.58,1.09-.42,2.09-1.04,3.18-1.43.91-.32,1.73-.85,2.68-1.06.5-.11.89-.48,1.29-.76.32-.22.65-.19.96-.31.48-.17.86-.51,1.35-.67.63-.21,1.21-.57,1.83-.83.84-.36,1.65-.83,2.39-1.38.51-.39,1.19-.54,1.57-1.1.47.12.72-.31,1.18-.43-.19-.06-.3-.1-.41-.13-.04-.13.05-.2.14-.21,1.22-.11,2.05-.91,2.95-1.59.26-.2.55-.39.92-.34-.59.56-1.25,1.02-1.92,1.46-2.96,1.96-6.05,3.72-9.28,5.2-3.56,1.62-7.14,3.22-10.77,4.7-1.79.73-3.58,1.44-5.43,2,.18-.92.64-1.72,1.13-2.5.91-1.47,1.96-2.83,3.29-3.96Z"/>
      <path class="st12" d="M49.89,106.7c-6.01-2.39-13.91-5.4-22.5-6.76-1.08-.18-2.9.04-2.98.28-1.14-.44-1.23-.5-1.77-.83.43,0,.86-.02,1.28,0,3.69.17,7.27.97,10.86,1.77,2.18.49,4.31,1.12,6.42,1.85,6.21,2.2,8.62,3.62,8.7,3.68Z"/>
      <path class="st1" d="M87.47,75.18c-.32.1-.63.22-.75-.29-.07-.28-.19-.54-.66-.37-.21.08-.48-.33-.57-.64.11.03.2.13.42.07-.33-.23-.39-.78-.93-.43-.1.06-.18-.03-.21-.13-.1-.36-.22-.69-.68-.69-.32-.64-1.04-.9-1.41-1.48-.16-.25-.47-.36-.56-.66-.03-.11-.13-.12-.23-.05-.32.21-.39-.25-.61-.23-.31.02-.32-.12-.38-.37-.07-.3-.34-.52-.39-.87-.03-.2-.3-.3-.54-.29-.19,0-.4.03-.55-.14-.09-.1-.14-.22-.06-.33.04-.05.18-.03.45-.06-.67-.37-1.39-.5-1.54-1.24h0c-.5.15-.75.05-.91-.33-.13-.28-.12-.57-.11-.86.83.61,1.55,1.35,2.31,2.04,2.53,2.29,5.07,4.56,7.51,6.94.14.14.26.29.4.43Z"/>
      <path class="st0" d="M160.2,103.45c-1.41-.4-2.59-2.36-10.97-4.37-2.15-.4-3.77-.46-6.32-.19.05-.09.1-.18.16-.27,3.01-.39,5.94,0,8.84.81,2.1.59,4.13,1.34,6.04,2.4.81.45,1.58.97,2.25,1.61Z"/>
      <path class="st20" d="M67.55,116.13c-.29.18-.56.37-.61.75-.25-.63-.31-1.31-.42-1.97-.23-1.39-.41-2.78-.58-4.18-.04-.3-.12-.63.09-.92.36,1.47.73,2.93,1.07,4.4.15.64.41,1.25.45,1.92Z"/>
      <path class="st8" d="M76.95,65.5c.17,1.03.37,2.06.52,3.1.09.63.26,1.24.23,1.88.08.1.07.21.02.32-.5-.11-.4-.56-.45-.88-.15-1.01-.38-2.02-.48-3.04-.09-.93-.54-1.57-1.25-2.13-1.51-1.2-2.9-2.54-4.38-3.78-.05-.05-.09-.11-.13-.16-.02-.02-.04-.05-.07-.07-.05-.04-.1-.09-.15-.13-.23-.17-.43-.37-.63-.57-.04-.04-.08-.08-.12-.13-.02-.02-.04-.04-.06-.06-.04-.04-.08-.08-.11-.13-.02-.02-.04-.04-.06-.06-.04-.04-.07-.08-.11-.13-.03-.05-.05-.1-.06-.16,0-.06.03-.1.08-.13,1.18.99,2.36,1.97,3.53,2.97,1.1.94,2.18,1.9,3.26,2.85.15.13.31.24.4.43Z"/>
      <path class="st22" d="M160.6,121.75c.02-.48.47-.65.72-.96.15-.19.35-.34.48-.54.07-.11-.09-.12-.17-.14.63-.42,1.28-.81,2.07-.87-.13.1-.26.22-.4.3-.94.5-1.71,1.2-2.41,1.98-.08.09-.18.15-.28.23Z"/>
      <path class="st8" d="M69.76,59.25c0,.07-.01.13-.02.2-.12.06-.25.06-.35-.02-.72-.54-1.38-1.13-1.99-1.79-.07-.07-.06-.18-.03-.28.07-.04.13-.04.2,0"/>
      <path class="st7" d="M67.57,57.37c-.06,0-.12.01-.19.02-.66-.09-1.01-.61-1.46-1.01-.05-.04-.09-.09-.13-.14-.02-.02-.04-.05-.06-.07-.04-.05-.07-.1-.1-.16,0-.03-.01-.06-.02-.09,0-.06.01-.13.02-.19.71.48,1.35,1.03,1.93,1.65Z"/>
      <path class="st14" d="M65.74,81.26c-.05.05-.1.11-.15.16-.22-.28-.33-.6-.44-.93.4.1.46.46.59.77Z"/>
      <g>
        <path class="st5" d="M161.63,120.11h0c-.14.11-.29.2-.45.29-.07.1-.21.07-.29.16-.19.11-.39.21-.57.33-2.29,1.55-4.2,3.52-5.99,5.61-1.43,1.68-2.66,3.51-3.92,5.31-1.5,2.15-2.77,4.45-3.97,6.78-1.29,2.49-2.85,4.8-4.51,7.05-.89,1.2-1.87,2.33-2.84,3.46-.91,1.07-1.95,1.99-3.03,2.88-1.05.85-2.18,1.58-3.3,2.32-.02.43.25.73.46,1.05.8,1.23,1.83,2.08,3.39,2.05,3.2-2.38,5.87-5.25,8.08-8.56,1.82-2.72,3.29-5.62,4.58-8.62,1.21-2.81,2.51-5.58,3.95-8.29.71-1.34,1.52-2.63,2.24-3.96h0s.29-.46.29-.46h0c.76-1.04,1.53-2.07,2.42-3.01.83-.88,1.62-1.81,2.43-2.72.3-.51.8-.84,1.17-1.28.21-.25.21-.26-.14-.36ZM155.88,126.49c-.23.3-.43.6-.32,1-.11.05-.18.13-.14.26-.38-.03-.52.29-.67.54-1.21,1.93-2.27,3.95-3.24,6.01-1.19,2.53-2.37,5.05-3.48,7.62-.64,1.5-1.4,2.94-2.28,4.34-.9,1.43-1.76,2.87-2.8,4.2-.2.26-.55.33-.69.65-.45,1.04-1.37,1.71-2.06,2.56-.99,1.21-2.32,2.09-3.51,3.1-.19.16-.4.2-.62.13-1.12-.32-2.03-.94-2.59-1.99-.15-.27-.06-.49.2-.61.58-.28,1.03-.74,1.55-1.11,1.36-.96,2.71-1.97,3.78-3.23,1.47-1.74,3-3.43,4.23-5.36,1.15-1.79,2.42-3.51,3.37-5.42,2.06-4.16,4.68-7.98,7.49-11.66.89-1.17,1.96-2.19,2.97-3.26.5-.53.98-1.14,1.83-1.39-1,1.3-2.08,2.4-3.01,3.63Z"/>
        <polygon class="st5" points="161.17 120.4 161.18 120.4 161.18 120.4 161.17 120.4"/>
      </g>
      <path class="st24" d="M71.76,125.56c-.07-.02-.1-.07-.11-.14.07.02.11.06.11.14Z"/>
      <path class="st26" d="M139.24,103.33c.81-.28,1.58-.64,2.4-.9,2.19-.71,5.92-1.13,7.6-.97-2.01,1.19-4.27,3.26-5.59,4.42-1.55,1.36-3.05,2.76-4.49,4.23-1.15,1.17-2.18,2.45-3.27,3.67-2.24,2.51-4.12,5.28-6.02,8.04-1.42,2.08-2.71,4.25-4.08,6.37-1.76,2.71-3.57,5.39-5.29,8.12-1.67,2.65-3.46,5.23-5.33,7.73-1.59,2.14-3.23,4.24-4.84,6.37-.81,1.07-1.72,2.07-2.6,3.08-2.26,2.58-4.91,4.68-7.67,6.69-3.38,2.48-6.94,4.67-10.52,6.84-1.3.79-4.47,2.35-4.63,2.54-.88.25-1.75.5-2.63.75-.46.12-4.26,1.69-4.26,1.69-.3.1,1.48-3.88,1.91-5.05.75-2.06,1.48-4.14,2.22-6.21.07-.2.1-.43.26-.6,1.4-1.26,2.86-2.46,4.28-3.69,1.84-1.59,3.57-3.28,5.3-4.99,3.51-3.46,6.56-7.27,9.03-11.55,1.89-3.27,3.5-6.68,4.99-10.15,1.45-3.36,2.78-6.75,3.72-10.29.82-3.08,1.45-6.2,1.67-9.39.04-.54,0-1.13.31-1.63.9.97,1.63,2.07,2.48,3.08.14.17.25.36.44.49.73,1.11,1.63,2.08,2.41,3.15.26.36.52.72.79,1.06,1.08,1.33,2.41,2.23,4.19,2.26,1.16.03,2.15-.42,3-1.19.87-.86,1.37-1.62,2.29-2.96.87-1.21,1.68-2.45,2.61-3.61,2.4-3,5.27-5.42,8.73-7.13.08-.09.22-.05.3-.14h0c.08-.09.22-.06.29-.15h0Z"/>
      <path class="st22" d="M161.62,120.11c-.09.19-.23.3-.45.28.09-.18.24-.28.45-.28Z"/>
      <path class="st22" d="M161.18,120.4c-.05.13-.16.15-.29.16.06-.12.16-.15.29-.16Z"/>
      <path class="st2" d="M111.71,108.47c-.11,2.2-.37,4.37-.77,6.54-.34,1.85-.79,3.67-1.3,5.48-.24.85-.52,1.68-.79,2.52-.5,1.53-1.07,3.04-1.7,4.53-.62,1.46-1.21,2.93-1.86,4.37-.66,1.47-1.35,2.93-2.05,4.38-.36.75-.76,1.48-1.18,2.2-.63,1.1-1.27,2.2-1.93,3.28-.87,1.42-1.87,2.75-2.88,4.06-.78,1-1.59,1.98-2.4,2.96-.12.15-.27.29-.4.43-.99,1.01-1.92,2.08-2.95,3.05-1.46,1.37-2.86,2.81-4.4,4.1-1.27,1.06-2.5,2.18-3.77,3.25-.28.23-.55.49-.93.56.21-.88.56-1.72.86-2.58.86-2.51,1.58-5.05,2.03-7.66.4-2.29.71-4.6.64-6.94-.06-2.21-.35-4.39-.81-6.55-.18-.84-.34-1.68-.65-2.48-.12-.14-.03-.33-.13-.47,0-.04,0-.08-.03-.12-.07-.09-.06-.22-.12-.32,0-.05,0-.09-.03-.12.01-.05.03-.11.04-.16-.07-.48.04-.92.25-1.35,2-4.11,3.13-8.5,4.04-12.95.51-2.5,1.06-4.99,1.49-7.5.57-3.38,1.09-6.77,1.5-10.18.32-2.68.5-5.36.69-8.05.1-1.41.21-2.83.19-4.26,0-.24-.01-.49.05-.73.1-.42.37-.48.62-.18.95,1.15,2.01,2.2,2.98,3.33.75.87,1.51,1.73,2.32,2.55.42.34.78.73,1.1,1.16.17.23.37.46.62.61.34.66.92,1.14,1.39,1.7,2.36,2.77,4.78,5.49,7.34,8.09.93.94,1.76,1.97,2.62,2.96.13.15.21.33.31.49Z"/>
      <path class="st16" d="M84.34,133.48c.14.13.14.3.13.47-.18-.12-.15-.3-.13-.47Z"/>
      <path class="st16" d="M84.19,133.04c.1.08.13.19.12.32-.12-.08-.14-.19-.12-.32Z"/>
      <path class="st6" d="M98.33,93.45c-.38-.07-.53-.41-.76-.66-1.19-1.32-2.36-2.66-3.55-3.98-.42-.46-.87-.89-1.29-1.32-.22.16-.16.33-.16.46.08,1.59-.12,3.18-.19,4.76-.07,1.47-.2,2.96-.36,4.43-.09.79-.14,1.6-.2,2.4-.07,1.04-.27,2.07-.37,3.11-.09.94-.3,1.87-.36,2.82-.03.53-.19,1.05-.28,1.58-.16.98-.29,1.97-.45,2.96-.13.79-.28,1.58-.43,2.37-.29,1.48-.59,2.96-.89,4.44-.29,1.45-.57,2.91-.9,4.36-.24,1.07-.56,2.12-.85,3.18-.21.75-.4,1.51-.65,2.25-.24.72-.54,1.42-.82,2.12-.37.92-.7,1.86-1.18,2.74-.21.4-.3.86-.44,1.29-.49-1.2-.95-2.41-1.47-3.6-1.25-2.9-2.63-5.74-4.05-8.56-.85-1.68-1.65-3.38-2.48-5.07-.55-1.44-1.11-2.87-1.56-4.34-.7-2.29-1.25-4.62-1.77-6.96-.5-2.27-1.03-4.52-1.57-6.78-.39-1.64-.83-3.26-1.24-4.9.23-.27.13-.55,0-.82-.13-.3-.06-.55.12-.81.68-.95,1.4-1.87,1.99-2.89.56-.96,1.17-1.9,1.66-2.91.63-1.27,1.18-2.56,1.67-3.89.53-1.42.9-2.88,1.15-4.37.25-1.48.48-2.97.74-4.46.07-.42-.01-.75-.29-1.05.39,0,.44-.34.58-.59,0-.1,0-.2,0-.31.27.36.1.81.24,1.2.09.26.17.49.37.69,1.95,1.93,3.86,3.91,5.86,5.8,1.11,1.04,2.21,2.09,3.26,3.19,1.51,1.57,2.95,3.21,4.42,4.81.56.61,1.16,1.19,1.7,1.83.66.79,1.4,1.51,2.09,2.27.85.94,1.7,1.9,2.54,2.85.08.09.11.22.16.32Z"/>
      <path class="st2" d="M59.59,124.4c-.87-.34-1.64-.86-2.43-1.34-1.98-1.22-3.74-2.75-5.62-4.12-1.02-.75-1.96-1.62-2.86-2.51.13-.36.45-.56.72-.77,1.09-.83,1.9-1.87,2.6-3.04.68-1.14,1.07-2.4,1.6-3.59.4-.06.69.19.95.36,1.17.78,2.48,1.27,3.77,1.73,1.27.46,2.61.82,4,.74.12,0,.24-.01.36-.03.63-.11.76-.02.71.6-.13,1.4-.19,2.83-.47,4.2-.41,2-1.08,3.94-2.12,5.72-.24.41-.57.8-.63,1.3-.04.37-.33.54-.58.75Z"/>
      <path class="st1" d="M85.26,73.76s.03-.05.05-.08c.05.04.1.08.15.13.06.06.04.08-.04.06-.07-.02-.14-.02-.16-.11Z"/>
      <path class="st23" d="M138.95,103.47c-.06.12-.17.15-.3.14.07-.11.17-.15.3-.14Z"/>
      <path class="st23" d="M139.24,103.33c-.06.12-.17.15-.29.15.06-.12.17-.15.29-.15Z"/>
      <path class="st5" d="M155.59,127.47c-.05.1-.11.2-.16.29-.53.36-.76.94-1.05,1.46-.59,1.03-1.11,2.09-1.68,3.13-.61,1.11-1.13,2.26-1.67,3.41-.38.81-.81,1.61-1.16,2.44-.42.98-.88,1.95-1.3,2.93-.31.72-.65,1.41-.96,2.12-.32.73-.78,1.39-1.04,2.14-.08.23-.22.44-.43.58-.1.07-.19.14-.24.27-.39,1.09-1.22,1.93-1.75,2.92-.29.53-.71.91-1.03,1.39-.13.2-.26.35-.53.44-.29.1-.28.54-.49.79-.13.16-.21.36-.4.5-.72.52-1.07,1.36-1.74,1.94-.82.71-1.56,1.52-2.5,2.1-.16.1-.31.22-.45.37-.43.51-.78.6-1.39.32-.98-.46-1.85-1.04-2.37-2.05-.15-.3-.21-.5.15-.71,1-.59,1.9-1.34,2.83-2.03.54-.4,1.09-.83,1.57-1.28.93-.86,1.7-1.89,2.54-2.85.91-1.05,1.76-2.14,2.52-3.31.43-.66.91-1.31,1.39-1.96.85-1.15,1.53-2.42,2.19-3.69.41-.8.9-1.56,1.28-2.38.46-.99,1.12-1.87,1.61-2.85.45-.88,1.11-1.66,1.67-2.49.45-.66.91-1.35,1.43-1.94.91-1.05,1.54-2.31,2.57-3.28.88-.83,1.66-1.77,2.51-2.63.35-.35.76-.6,1.14-.9.15-.12.3-.14.45.02.18.19.03.3-.09.43-1.11,1.16-2.09,2.43-3.12,3.65-.19.22-.13.52-.3.73Z"/>
      <path class="st23" d="M78.28,66.95s-.06-.03-.06-.03c.01-.05.03-.04.06.03h0Z"/>
      <path class="st8" d="M69.89,59.59s-.1-.1-.15-.15c.05.05.1.1.15.15Z"/>
      <path class="st8" d="M70.03,59.74s-.1-.1-.15-.15c.05.05.1.1.15.15Z"/>
      <path class="st8" d="M70.18,59.89s-.1-.1-.15-.15c.05.05.1.1.15.15Z"/>
      <path class="st8" d="M71.06,60.62c-.05-.05-.1-.1-.15-.15.05.05.1.1.15.15Z"/>
      <path class="st8" d="M71.21,60.77s-.1-.1-.15-.15c.05.05.1.1.15.15Z"/>
      <path class="st9" d="M65.76,56.06s-.1-.1-.15-.15c.05.05.1.1.15.15Z"/>
      <path class="st9" d="M65.91,56.2s-.1-.1-.15-.14c.05.05.1.1.15.14Z"/>
      <path class="st25" d="M77.69,70.78v.76c-.26.01-.38-.21-.58-.17-.51-.74-1.27-1.21-1.93-1.79-.62-.55-1.21-1.14-1.87-1.65-1.1-.85-2.15-1.76-3.22-2.65-1.07-.89-2.11-1.81-3.18-2.7-.58-.48-1.19-.94-1.79-1.4-.1-.08-.19-.15-.24-.27.03-1.25-.3-2.45-.52-3.66-.12-.67-.31-1.32-.46-1.98-.03-.14-.05-.29-.04-.43.02-.2.15-.26.3-.13.22.19,8.67,7.46,9.47,8.16.94.82,1.87,1.64,2.8,2.46.23.2.34.43.39.75.22,1.46.48,2.92.72,4.38.02.12.04.24.15.32Z"/>
      <path class="st7" d="M60.79,51.63"/>
    </g>
    <path class="st4" d="M198.42,172.02s-34.22,2.31-62.83,11.86l-18,29.14s9.81-15.87,80.83-41Z"/>
  </g>
  <g>
    <path class="st21" d="M185.49,163.83v-.83c2.21-.08,3.08-.67,2.61-1.78l-1.54-4.62h-7.46l-1.54,4.5c-.55,1.11.36,1.74,2.73,1.9v.83h-7.11v-.83c1.5,0,2.49-.67,2.96-2.01l7.23-19.43,1.9-.24,6.52,18.72c.55,1.82,1.66,2.8,3.32,2.96v.83h-9.6ZM179.57,155.18h6.52l-3.08-9.36-3.44,9.36Z"/>
    <path class="st21" d="M198.41,159.69v-13.86c.16-2.37-.71-3.44-2.61-3.2v-1.07h16.11l.36,5.81-1.07.24c-.71-3.71-2.33-5.37-4.86-4.98h-4.27v9.12h3.32c1.97.16,3.04-.83,3.2-2.96h1.07v7.35h-1.07c-.32-2.37-1.38-3.47-3.2-3.32h-3.32v6.64c-.16,2.45.79,3.6,2.84,3.44v.95h-9.24v-.95c1.9.16,2.8-.91,2.73-3.2Z"/>
    <path class="st21" d="M218.43,163.83v-.95c2.29.16,3.36-.83,3.2-2.96v-17.3c-3.71-.08-6,2.21-6.87,6.87l-1.07-.24.59-7.7h18.6l.47,7.58-.95.36c-1.11-4.58-3.48-6.87-7.11-6.87v17.18c-.16,2.21.91,3.24,3.2,3.08v.95h-10.07Z"/>
  </g>
</svg>